<svg class="ldi-jxn7tu" width="500px"  height="500px"  xmlns="http://www.w3.org/2000/svg" xmlns:xlink="http://www.w3.org/1999/xlink" viewBox="0 0 100 100" preserveAspectRatio="xMidYMid" style="background: none;"><!--?xml version="1.0" encoding="utf-8"?--><!--Generator: Adobe Illustrator 21.0.0, SVG Export Plug-In . SVG Version: 6.00 Build 0)--><svg version="1.1" id="Layer_1" xmlns="http://www.w3.org/2000/svg" xmlns:xlink="http://www.w3.org/1999/xlink" x="0px" y="0px" viewBox="0 0 100 100" style="transform-origin: 50px 50px 0px;" xml:space="preserve"><g style="transform-origin: 50px 50px 0px;"><g style="transform-origin: 50px 50px 0px; transform: scale(0.5);"><g style="transform-origin: 50px 50px 0px;"><g><style type="text/css" class="ld ld-heartbeat" style="transform-origin: 50px 50px 0px; animation-duration: 1s; animation-delay: -1s; animation-direction: normal;">.st0{fill:#F4E6C8;} .st1{opacity:0.8;fill:#849B87;} .st2{fill:#D65A62;} .st3{fill:#E15C64;} .st4{fill:#F47E5F;} .st5{fill:#F7B26A;} .st6{fill:#FEE8A2;} .st7{fill:#ACBD81;} .st8{fill:#F5E169;} .st9{fill:#F0AF6B;} .st10{fill:#EA7C60;} .st11{fill:#A8B980;} .st12{fill:#829985;} .st13{fill:#798AAE;} .st14{fill:#8672A7;} .st15{fill:#CC5960;} .st16{fill:#E17A5F;} .st17{fill:#849B87;} .st18{opacity:0.8;fill:#E15C64;} .st19{opacity:0.8;fill:#F7B26A;} .st20{fill:#79A5B5;} .st21{opacity:0.8;fill:#79A5B4;} .st22{fill:#666766;}</style><g class="ld ld-heartbeat" style="transform-origin: 50px 50px 0px; animation-duration: 1s; animation-delay: -0.944444s; animation-direction: normal;"><path class="st2" d="M50,24.6c-4.7,0-8.6-3.8-8.6-8.6s3.8-8.6,8.6-8.6s18.1,8.6,18.1,8.6S54.7,24.6,50,24.6z" fill="#e93a33" style="fill: rgb(233, 58, 51);"></path></g><g class="ld ld-heartbeat" style="transform-origin: 50px 50px 0px; animation-duration: 1s; animation-delay: -0.888889s; animation-direction: normal;"><path class="st10" d="M32.1,32.1c-3.3,3.3-8.8,3.3-12.1,0c-3.3-3.3-3.3-8.8,0-12.1s18.9-6.7,18.9-6.7S35.4,28.7,32.1,32.1z" fill="#a4d1a0" style="fill: rgb(164, 209, 160);"></path></g><g class="ld ld-heartbeat" style="transform-origin: 50px 50px 0px; animation-duration: 1s; animation-delay: -0.833333s; animation-direction: normal;"><path class="st9" d="M24.6,50c0,4.7-3.8,8.6-8.6,8.6S7.5,54.7,7.5,50s8.6-18.1,8.6-18.1S24.6,45.3,24.6,50z" fill="#a2cfef" style="fill: rgb(162, 207, 239);"></path></g><g class="ld ld-heartbeat" style="transform-origin: 50px 50px 0px; animation-duration: 1s; animation-delay: -0.777778s; animation-direction: normal;"><path class="st11" d="M32.1,67.9c3.3,3.3,3.3,8.8,0,12.1c-3.3,3.3-8.8,3.3-12.1,0c-3.3-3.3-6.7-18.9-6.7-18.9S28.7,64.6,32.1,67.9z" fill="#f7d604" style="fill: rgb(247, 214, 4);"></path></g><g class="ld ld-heartbeat" style="transform-origin: 50px 50px 0px; animation-duration: 1s; animation-delay: -0.722222s; animation-direction: normal;"><path class="st2" d="M50,75.4c4.7,0,8.6,3.8,8.6,8.6s-3.8,8.6-8.6,8.6s-18.1-8.6-18.1-8.6S45.3,75.4,50,75.4z" fill="#e93a33" style="fill: rgb(233, 58, 51);"></path></g><g class="ld ld-heartbeat" style="transform-origin: 50px 50px 0px; animation-duration: 1s; animation-delay: -0.666667s; animation-direction: normal;"><path class="st10" d="M67.9,67.9c3.3-3.3,8.8-3.3,12.1,0c3.3,3.3,3.3,8.8,0,12.1c-3.3,3.3-18.9,6.7-18.9,6.7S64.6,71.3,67.9,67.9z" fill="#a4d1a0" style="fill: rgb(164, 209, 160);"></path></g><g class="ld ld-heartbeat" style="transform-origin: 50px 50px 0px; animation-duration: 1s; animation-delay: -0.611111s; animation-direction: normal;"><path class="st9" d="M75.4,50c0-4.7,3.8-8.6,8.6-8.6s8.6,3.8,8.6,8.6s-8.6,18.1-8.6,18.1S75.4,54.7,75.4,50z" fill="#a2cfef" style="fill: rgb(162, 207, 239);"></path></g><g class="ld ld-heartbeat" style="transform-origin: 50px 50px 0px; animation-duration: 1s; animation-delay: -0.555556s; animation-direction: normal;"><path class="st11" d="M67.9,32.1c-3.3-3.3-3.3-8.8,0-12.1c3.3-3.3,8.8-3.3,12.1,0c3.3,3.3,6.7,18.9,6.7,18.9S71.3,35.4,67.9,32.1z" fill="#f7d604" style="fill: rgb(247, 214, 4);"></path></g><metadata xmlns:d="https://loading.io/stock/" class="ld ld-heartbeat" style="transform-origin: 50px 50px 0px; animation-duration: 1s; animation-delay: -0.5s; animation-direction: normal;">
<d:name class="ld ld-heartbeat" style="transform-origin: 50px 50px 0px; animation-duration: 1s; animation-delay: -0.444444s; animation-direction: normal;">drip</d:name>
<d:tags class="ld ld-heartbeat" style="transform-origin: 50px 50px 0px; animation-duration: 1s; animation-delay: -0.388889s; animation-direction: normal;">drop,water,fire,ring,loader,drip,spinner</d:tags>
<d:license class="ld ld-heartbeat" style="transform-origin: 50px 50px 0px; animation-duration: 1s; animation-delay: -0.333333s; animation-direction: normal;">cc-by</d:license>
<d:slug class="ld ld-heartbeat" style="transform-origin: 50px 50px 0px; animation-duration: 1s; animation-delay: -0.277778s; animation-direction: normal;">jxn7tu</d:slug>
</metadata></g></g></g></g><style type="text/css" class="ld ld-heartbeat" style="transform-origin: 50px 50px 0px; animation-duration: 1s; animation-delay: -0.222222s; animation-direction: normal;">@keyframes ld-heartbeat {
  0% {
    -webkit-transform: scale(1.05);
    transform: scale(1.05);
  }
  5% {
    -webkit-transform: scale(1.25);
    transform: scale(1.25);
  }
  39% {
    -webkit-transform: scale(0.9);
    transform: scale(0.9);
  }
  45% {
    -webkit-transform: scale(1.15);
    transform: scale(1.15);
  }
  60% {
    -webkit-transform: scale(1.05);
    transform: scale(1.05);
  }
  100% {
    -webkit-transform: scale(1);
    transform: scale(1);
  }
}
@-webkit-keyframes ld-heartbeat {
  0% {
    -webkit-transform: scale(1.05);
    transform: scale(1.05);
  }
  5% {
    -webkit-transform: scale(1.25);
    transform: scale(1.25);
  }
  39% {
    -webkit-transform: scale(0.9);
    transform: scale(0.9);
  }
  45% {
    -webkit-transform: scale(1.15);
    transform: scale(1.15);
  }
  60% {
    -webkit-transform: scale(1.05);
    transform: scale(1.05);
  }
  100% {
    -webkit-transform: scale(1);
    transform: scale(1);
  }
}
.ld.ld-heartbeat {
  -webkit-animation: ld-heartbeat 0.8s infinite cubic-bezier(0.215, 0.61, 0.355, 1);
  animation: ld-heartbeat 0.8s infinite cubic-bezier(0.215, 0.61, 0.355, 1);
}
</style></svg></svg>